<svg width="859" height="170" viewBox="0 0 859 170" fill="none" xmlns="http://www.w3.org/2000/svg">
<path d="M20.0985 146.178C2.38791 141.468 -0.617196 151.351 0.0940723 156.881C5.16216 158.754 149.727 150.727 161.196 152.867C170.371 154.58 165.019 156.256 161.196 156.881C148.838 156.256 124.121 156.56 124.121 162.768C124.121 170.527 151.327 169.992 163.33 169.992C175.333 169.992 356.706 167.316 364.441 164.908C370.629 162.982 484.557 159.289 540.747 157.684C563.685 157.951 608.602 159.021 604.761 161.162C591.318 165.443 596.492 168.833 600.76 169.992C688.246 167.138 862.365 159.557 858.951 152.064C855.536 144.572 790.135 138.775 757.862 136.813C750.749 136.01 735.51 132.638 731.456 125.574C730.602 105.666 714.741 108.717 706.917 112.731C697.582 107.201 676.617 98.87 667.442 109.787C669.842 104.168 649.838 95.338 639.435 105.774C643.276 89.7189 622.009 86.4187 610.896 86.7755C611.251 82.851 609.722 75.5908 600.76 77.9455C603.961 66.6002 586.979 67.8667 578.088 69.9181C580.845 59.3042 577.235 38.0764 540.747 38.0764C504.259 38.0764 500.293 60.7313 502.872 72.0588C501.449 70.7209 497.164 68.8478 491.403 72.0588C485.641 75.2697 489.002 80.532 491.403 82.7619C485.712 83.1186 476.039 86.9361 482.867 99.3517C472.465 95.338 462.063 103.633 467.397 118.885C462.49 118.885 460.907 121.561 460.729 122.898C455.75 120.134 445.419 117.119 443.925 127.18C440.085 125.253 429.344 127.982 424.454 129.588C422.854 126.02 416.986 118.885 406.317 118.885C393.514 106.469 385.512 113.712 383.112 118.885C378.4 117.012 367.428 115.192 361.24 122.898C360.173 112.195 342.836 112.909 334.301 114.604C335.19 108.093 332.754 95.0704 315.897 95.0704C318.458 82.8689 309.14 79.8185 304.161 79.8185C310.74 77.0535 320.645 64.0849 307.629 34.3303C291.625 1.57883 255.973 -1.79265 240.147 0.615552C228.678 1.86425 203.552 11.4792 194.804 39.9494C190.749 35.6682 185.29 34.4195 183.068 34.3303C176.488 35.4006 166.904 42.5182 181.201 62.426C160.289 63.7103 160.574 81.5132 163.33 90.254C150.972 82.9402 124.921 77.0892 119.587 112.195C112.972 103.633 97.4487 102.741 90.5138 103.365C81.3562 103.811 62.5609 110.697 60.6405 134.672C55.0926 129.748 44.637 135.118 40.1026 138.418C37.4354 140.291 29.7004 144.465 20.0985 146.178Z" fill="url(#paint0_linear_148_41)"/>
<defs>
<linearGradient id="paint0_linear_148_41" x1="429.5" y1="0" x2="429.5" y2="170" gradientUnits="userSpaceOnUse">
<stop stop-color="#DE4C83"/>
<stop offset="0.624061" stop-color="#FD5243"/>
<stop offset="1" stop-color="#FBC613"/>
</linearGradient>
</defs>
</svg>
