<svg width="558" height="70" viewBox="0 0 558 70" fill="none" xmlns="http://www.w3.org/2000/svg">
<path d="M553.271 66.6281C554.799 66.8814 556.373 67.1344 558 67.3867C557.55 67.1375 555.908 66.8839 553.271 66.6281C507.326 59.0109 503.822 51.11 404.379 52.5553C398.047 34.934 370.561 39.3642 357.609 43.782C352.453 37.3109 335.088 27.4673 306.882 39.8619C288.174 26.2726 256.874 32.7064 243.563 37.6219C236.128 25.7375 215.393 6.33653 191.936 23.8085C185.46 6.82185 160.816 14.6619 155.78 20.4485C155.78 2.37918 139.23 -0.644827 130.956 0.101839C122.261 2.03075 106.491 10.0699 112.967 26.7952C90.6615 14.4752 86.1644 36.8752 89.7621 42.2886C64.9381 37.6219 9.17407 61.6 0 70C13.0956 63.728 97.3172 65.4352 129.337 66.7419C144.147 66.9286 178.769 66.0326 198.772 60.9552C218.775 55.8779 333.625 58.8397 388.549 60.9552C434.47 62.07 530.616 64.4308 553.271 66.6281Z" fill="url(#paint0_linear_150_57)"/>
<defs>
<linearGradient id="paint0_linear_150_57" x1="279" y1="0" x2="279" y2="70" gradientUnits="userSpaceOnUse">
<stop stop-color="#DE4C83"/>
<stop offset="0.28125" stop-color="#FD5243"/>
<stop offset="1" stop-color="#FBC613"/>
</linearGradient>
</defs>
</svg>
