<svg width="505" height="104" viewBox="0 0 505 104" fill="none" xmlns="http://www.w3.org/2000/svg">
<path d="M38.2313 82.868C21.5001 92.9259 5.77244 96.867 0 97.5803C12.4685 100.898 29.0842 97.3573 35.8336 95.1726C36.6328 96.6884 40.5758 99.2921 49.9538 97.5803C57.5202 93.1936 81.3471 94.1474 92.3147 95.1726C96.1334 97.0451 105.289 100.817 111.364 100.924C118.957 101.058 129.214 100.255 137.207 89.0202C150.927 85.2752 165.447 104 179.834 104C194.221 104 221.395 93.0326 267.22 97.1788C323.275 93.7549 449.096 95.7522 505 97.1788C491.057 95.9751 460.348 93.5676 449.052 93.5676C431.148 81.7977 379.516 81.5304 355.938 82.868C353.984 79.7025 346.853 74.1741 333.958 77.384C333.106 68.8241 324.633 68.0216 320.504 68.6904C321.436 63.0283 320.051 52.159 307.05 53.978C311.312 39.2657 294.927 20.0059 267.22 37.7944C266.82 21.6109 245.64 6.8985 227.79 28.2983C227.15 12.4624 213.936 3.77777 207.408 1.41491C191.112 -2.28547 157.401 -0.992559 152.925 33.7821C145.066 22.2797 107.234 27.4959 115.493 70.6968C101 59.3549 77.1287 72.3018 67.0048 80.193C60.5663 79.123 45.7977 78.16 38.2313 82.868Z" fill="url(#paint0_linear_150_59)"/>
<defs>
<linearGradient id="paint0_linear_150_59" x1="252.5" y1="0" x2="252.5" y2="104" gradientUnits="userSpaceOnUse">
<stop stop-color="#FD533E"/>
<stop offset="1" stop-color="#FBCB11"/>
</linearGradient>
</defs>
</svg>
