<svg width="558" height="70" viewBox="0 0 558 70" fill="none" xmlns="http://www.w3.org/2000/svg">
<path d="M4.72901 66.6281C3.2013 66.8814 1.62665 67.1344 0 67.3867C0.450189 67.1375 2.09158 66.8839 4.72901 66.6281C50.6743 59.0109 54.1777 51.11 153.621 52.5553C159.953 34.934 187.439 39.3642 200.391 43.782C205.547 37.3109 222.912 27.4673 251.118 39.8619C269.826 26.2726 301.126 32.7064 314.437 37.6219C321.872 25.7375 342.607 6.33653 366.064 23.8085C372.54 6.82185 397.184 14.6619 402.22 20.4485C402.22 2.37918 418.77 -0.644827 427.044 0.101839C435.739 2.03075 451.509 10.0699 445.033 26.7952C467.338 14.4752 471.836 36.8752 468.238 42.2886C493.062 37.6219 548.826 61.6 558 70C544.904 63.728 460.683 65.4352 428.663 66.7419C413.853 66.9286 379.231 66.0326 359.228 60.9552C339.225 55.8779 224.375 58.8397 169.451 60.9552C123.53 62.07 27.384 64.4308 4.72901 66.6281Z" fill="url(#paint0_linear_148_37)"/>
<defs>
<linearGradient id="paint0_linear_148_37" x1="279" y1="0" x2="279" y2="70" gradientUnits="userSpaceOnUse">
<stop stop-color="#DE4C83"/>
<stop offset="0.28125" stop-color="#FD5243"/>
<stop offset="1" stop-color="#FBC613"/>
</linearGradient>
</defs>
</svg>
