<svg width="139" height="26" viewBox="0 0 139 26" fill="none" xmlns="http://www.w3.org/2000/svg">
<path d="M22.6124 16.9451C9.66571 16.9451 2.14301 21.0958 0 23.1711C6.57682 24.357 20.9276 26.0173 25.7161 23.1711C30.5046 20.3249 36.4312 20.7993 38.7959 21.3922C41.8995 24.4311 50.2794 29.0413 58.9697 23.1711C60.9649 21.837 69.3892 23.1711 75.5965 24.5052C80.5624 25.5725 89.4891 22.8746 93.3317 21.3922C97.7655 22.6523 107.742 24.5497 112.175 22.0593C113.417 23.3045 130.576 23.3193 139 23.1711C135.749 22.0593 129.157 19.2576 128.802 16.9451C128.359 14.0545 117.718 9.16265 112.175 14.7216C110.18 8.27322 88.6762 1.15782 82.6906 9.16265C74.5324 0.979932 68.059 4.86376 65.8421 7.82851C64.9553 6.79084 62.5167 5.33812 59.8565 7.82851C60.0338 1.60253 53.8708 0.0460265 50.7671 0.0460224C45.0771 -0.324572 34.1847 1.38016 36.1356 11.1639C31.9234 7.60616 21.0606 9.16265 22.6124 16.9451Z" fill="url(#paint0_linear_149_46)"/>
<defs>
<linearGradient id="paint0_linear_149_46" x1="69.5" y1="0" x2="69.5" y2="26" gradientUnits="userSpaceOnUse">
<stop stop-color="#F64B71"/>
<stop offset="1" stop-color="#FBCE10"/>
</linearGradient>
</defs>
</svg>
